<?xml version="1.0" encoding="UTF-8"?> <svg xmlns="http://www.w3.org/2000/svg" xmlns:xlink="http://www.w3.org/1999/xlink" width="191.672" height="28.714" viewBox="0 0 191.672 28.714"><defs><clipPath id="clip-path"><rect id="Rectangle_33" data-name="Rectangle 33" width="191.672" height="28.714" fill="none"></rect></clipPath></defs><g id="Group_2848" data-name="Group 2848" transform="translate(0 0)"><path id="Path_45" data-name="Path 45" d="M585.3,23.443l-6.728,13.182-1-13.179h-6.35l2.571,21.9h5.608L586.314,32l1.668,13.341h5.649l11.12-21.9h-6.226L592.34,36.665l-1.634-13.222Z" transform="translate(-413.078 -16.953)" fill="#f78b00"></path><path id="Path_46" data-name="Path 46" d="M402.835,0l-5.469,17.477L389.534,0h-5.62l-8.832,28.384h6.163L386.7,10.34l8.288,18.045H400.3L409,0Z" transform="translate(-271.238)" fill="#f78b00"></path><g id="Group_13" data-name="Group 13" transform="translate(0 0)"><g id="Group_12" data-name="Group 12" transform="translate(0 0)" clip-path="url(#clip-path)"><path id="Path_47" data-name="Path 47" d="M494.469,44.615c-6.731,0-11.111-4.988-10.35-11.232l.01-.081a13.24,13.24,0,0,1,13.179-11.314c6.731,0,11.111,4.987,10.35,11.232l-.01.081a13.239,13.239,0,0,1-13.179,11.313m7.1-11.313c.391-3.2-1.58-6-4.986-6a6.452,6.452,0,0,0-6.358,5.92l-.01.081c-.39,3.2,1.58,6,4.986,6a6.452,6.452,0,0,0,6.358-5.92Z" transform="translate(-350.025 -15.9)" fill="#f78b00"></path><path id="Path_48" data-name="Path 48" d="M99.039,28.384,90.751,10.34,85.293,28.384H79.13L87.9,0h5.684l7.831,17.477L106.882,0h6.163l-8.694,28.385Z" transform="translate(-57.222 0)" fill="#24272a"></path><path id="Path_49" data-name="Path 49" d="M198.517,44.615c-6.731,0-11.111-4.988-10.35-11.232l.01-.081a13.239,13.239,0,0,1,13.179-11.314c6.731,0,11.111,4.987,10.35,11.232l-.01.081a13.239,13.239,0,0,1-13.179,11.313m7.1-11.313c.391-3.2-1.58-6-4.986-6a6.452,6.452,0,0,0-6.358,5.92l-.01.081c-.39,3.2,1.58,6,4.986,6a6.452,6.452,0,0,0,6.358-5.92Z" transform="translate(-136.009 -15.9)" fill="#24272a"></path><path id="Path_50" data-name="Path 50" d="M296.531,45.342h-5.555L286.8,32l-4.258,13.341h-5.514l-6.691-21.9h6.245l3.488,13.179,4.1-13.182h5.312l4.136,13.222,3.568-13.219H303.3Z" transform="translate(-195.492 -16.952)" fill="#24272a"></path><path id="Path_51" data-name="Path 51" d="M45.553,23.486a2.722,2.722,0,0,0,0,5.445h9.561L56.8,23.486Z" transform="translate(-30.972 -16.984)" fill="#f78b00"></path><path id="Path_52" data-name="Path 52" d="M2.724,53.149a2.722,2.722,0,0,0,0,5.445H21.6l1.683-5.445Z" transform="translate(0 -38.434)" fill="#f78b00"></path><path id="Path_53" data-name="Path 53" d="M13.809,82.811a2.722,2.722,0,0,0,0,5.445H27.081l1.683-5.445Z" transform="translate(-8.016 -59.884)" fill="#f78b00"></path></g></g></g></svg> 